<?xml version="1.0" standalone="no"?>
<!DOCTYPE svg PUBLIC "-//W3C//DTD SVG 20010904//EN"
 "http://www.w3.org/TR/2001/REC-SVG-20010904/DTD/svg10.dtd">
<svg version="1.0" xmlns="http://www.w3.org/2000/svg"
 width="512px" height="512px" viewBox="0 0 512.000000 512.000000"
 preserveAspectRatio="xMidYMid meet">
<metadata>
Created by potrace 1.16, written by Peter Selinger 2001-2019
</metadata>
<g transform="translate(0.000000,512.000000) scale(0.100000,-0.100000)"
fill="#000000" stroke="none">
<path d="M160 3337 c-35 -18 -35 -43 0 -131 98 -248 245 -448 413 -564 112
-76 195 -112 347 -149 116 -28 431 -25 603 6 208 36 466 103 822 212 379 117
663 190 894 230 170 30 456 37 590 15 283 -48 466 -142 670 -346 113 -114 134
-125 183 -99 26 14 48 67 41 102 -3 15 -32 57 -65 93 -167 185 -351 307 -572
379 -174 57 -257 69 -486 69 -372 1 -619 -51 -1300 -275 -518 -171 -681 -213
-951 -245 -269 -32 -480 10 -666 133 -148 97 -314 295 -413 493 -46 91 -61
102 -110 77z"/>
<path d="M4673 3232 c-36 -5 -76 -60 -70 -97 3 -17 51 -101 107 -186 168 -255
227 -401 217 -539 -6 -99 -45 -177 -126 -253 -155 -146 -382 -214 -791 -237
-106 -6 -201 -15 -210 -20 -25 -13 -33 -56 -18 -88 21 -42 64 -47 328 -33 320
16 480 47 645 125 142 67 249 162 309 276 47 90 60 156 54 286 -4 88 -11 128
-37 204 -53 158 -156 336 -285 491 -53 65 -76 78 -123 71z"/>
<path d="M17 2979 c-26 -15 -21 -55 17 -145 168 -398 446 -676 795 -794 143
-48 246 -63 441 -63 296 -1 486 37 964 193 387 126 560 179 697 214 619 159
1022 97 1414 -218 79 -63 117 -72 152 -33 56 60 20 124 -142 257 -221 179
-472 260 -810 260 -305 0 -592 -61 -1180 -251 -550 -178 -779 -235 -1035 -260
-351 -33 -605 52 -846 283 -129 124 -206 231 -379 526 -25 44 -51 53 -88 31z"/>
</g>
</svg>
